<svg xmlns="http://www.w3.org/2000/svg" xmlns:xlink="http://www.w3.org/1999/xlink" height="24" viewBox="0 0 195.94 141.5">
  <defs>
    <style>
      .a {
        fill: #8457d9;
      }

      .b {
        fill: #a9adb3;
      }

      .c {
        fill: url(#a);
      }

      .d {
        fill: #fff;
      }
    </style>
    <linearGradient id="a" x1="87.58" y1="70.75" x2="129.66" y2="70.75" gradientUnits="userSpaceOnUse">
      <stop offset="0" stop-opacity="0.6"/>
      <stop offset="1" stop-opacity="0"/>
    </linearGradient>
  </defs>
  <title>dark</title>
  <polygon class="a" points="129.66 69.61 96.62 18.86 96.62 119.8 129.66 69.61"/>
  <path class="b" d="M87.38,138.19c-.82-2.21.58-4.93,2.22-7.81l40.06-60.84L88.73,6.67A5.43,5.43,0,0,1,88.17,4,4,4,0,0,1,89.3,1.21,3.46,3.46,0,0,1,91.93,0h9c1.88,0,5.34.37,7.35,3.43L141.3,54,174.16,3.43Q176,0,179,0h10.7a3.48,3.48,0,0,1,2.63,1.21A4,4,0,0,1,193.5,4a3.81,3.81,0,0,1-.76,2.63L152.38,69.74l42.81,65.09a5,5,0,0,1,.75,2.63,4,4,0,0,1-1.13,2.83A3.68,3.68,0,0,1,192,141.5H180.54q-2.82,0-5.07-3.43L140.55,85.71l-34.73,52.36q-1.87,3.44-4.88,3.43H92.09A5,5,0,0,1,87.38,138.19Z"/>
  <path class="c" d="M87.65,138.77a5,5,0,0,0,2.43,2.3l.13.06c.13.05.27.11.41.15l.42.1.27.06a4.93,4.93,0,0,0,.78.06h9c.16,0,.31,0,.46,0l.13,0A3.84,3.84,0,0,0,103,141a6.8,6.8,0,0,0,2.81-3l23.84-35.94v-66L108.26,3.43C106.25.37,102.79,0,100.91,0h-9a4.06,4.06,0,0,0-3.1,1.31,5,5,0,0,0-1.22,3.54Z"/>
  <path class="d" d="M1.32,140.19A4.52,4.52,0,0,1,0,136.85V4.85A4.78,4.78,0,0,1,1.32,1.31,4.51,4.51,0,0,1,4.65,0H14A5.14,5.14,0,0,1,19,2.83l67.12,103.1V4.85a4.78,4.78,0,0,1,1.31-3.54A4.53,4.53,0,0,1,90.76,0h9.71A4.78,4.78,0,0,1,104,1.31a4.78,4.78,0,0,1,1.32,3.54v131.8a4.85,4.85,0,0,1-1.32,3.44,4.35,4.35,0,0,1-3.33,1.41H91a5.52,5.52,0,0,1-4.85-2.83L19.2,36.59V136.85a4.37,4.37,0,0,1-1.41,3.34,4.85,4.85,0,0,1-3.44,1.31H4.65A4.48,4.48,0,0,1,1.32,140.19Z"/>
</svg>
