<svg width="40" height="30" viewBox="0 0 40 30" fill="none" xmlns="http://www.w3.org/2000/svg">
<path d="M25.3111 9.96801L17.5894 18.6045C17.3213 18.8796 16.8923 18.9346 16.6241 18.6596L13.8894 16.1291C13.5676 15.8541 13.1386 15.9091 12.8705 16.1841L5.95313 24.7106C5.73864 24.9307 5.89951 25.3157 6.22125 25.3157H34.5879C34.8024 25.3157 34.9633 25.1507 34.9633 24.9307V19.4297C34.9633 19.2647 34.9097 19.0446 34.7488 18.9346L26.3836 9.96801C26.0618 9.69296 25.6328 9.69296 25.3111 9.96801Z" fill="#D9DCDE" stroke="#D9DCDE" stroke-miterlimit="10"/>
<path d="M9.32908 12.4963C11.3133 12.4963 12.9218 10.8462 12.9218 8.81066C12.9218 6.77512 11.3133 5.125 9.32908 5.125C7.34486 5.125 5.73633 6.77512 5.73633 8.81066C5.73633 10.8462 7.34486 12.4963 9.32908 12.4963Z" stroke="#D9DCDE" stroke-width="2" stroke-miterlimit="10"/>
<path d="M36.9449 29H3.05507C2.1971 29 1.5 28.2849 1.5 27.4047V2.59528C1.5 1.71513 2.1971 1 3.05507 1H36.9449C37.8029 1 38.5 1.71513 38.5 2.59528V27.4047C38.5 28.2849 37.8029 29 36.9449 29Z" stroke="#D9DCDE" stroke-width="2" stroke-miterlimit="10"/>
</svg>
