<?xml version="1.0" encoding="UTF-8"?>
<svg width="120px" height="120px" viewBox="0 0 120 120" version="1.1" xmlns="http://www.w3.org/2000/svg" xmlns:xlink="http://www.w3.org/1999/xlink">
    <title>spot / spot-integrations</title>
    <g id="spot-/-spot-integrations" stroke="none" stroke-width="1" fill="none" fill-rule="evenodd">
        <rect id="Rectangle" fill-rule="nonzero" x="0" y="0" width="120" height="120"></rect>
        <g id="group" transform="translate(12.000000, 20.000000)">
            <path d="M10.9187,12.924 C-16.4953,36.63 16.2027,68.529 40.8537,77.145 C77.0857,88.431 114.6477,55.82 86.5957,21.273 C86.8227,21.567 87.0497,21.86 87.2747,22.153 C77.1717,8.007 58.7407,-3.484 40.9317,0.975 C29.7047,-0.003 18.6327,4.868 10.9187,12.924" id="Fill-1" fill-opacity="0.4" fill="#D8C5EB"></path>
            <path d="M82.74,50.8893 C82.003,60.3603 96.43,55.9103 101.519,54.4483 C101.126,49.0513 103.798,41.6383 100.644,37.1283 C92.195,35.7723 80.09,37.2303 82.373,48.4853" id="Fill-3" fill="#D8C5EB"></path>
            <path d="M39.6159,23.9523 C35.2579,35.3173 60.5839,33.1823 64.8119,27.2443 C72.8029,14.2273 45.6289,11.2243 41.3899,21.6933" id="Fill-5" fill="#D8C5EB"></path>
            <path d="M15.8728,36.7492 C25.5238,34.9782 23.0348,48.2262 21.7978,54.1352 C14.7408,56.3172 -0.5362,59.1632 4.1218,47.0672" id="Fill-7" fill="#D8C5EB"></path>
            <path d="M41.2029,61.2794 C41.9909,65.6234 48.2089,69.1804 51.5339,72.1724 C56.1299,69.9274 64.2439,65.1974 65.0329,60.0414 C52.5269,50.9274 54.7029,49.6894 42.2299,59.7334" id="Fill-9" fill="#D8C5EB"></path>
            <path d="M61.907,59.1408 C59.58,58.0268 61.779,55.8438 63.654,56.5158 L63.472,56.4958 C64.313,56.5658 65.139,56.3338 65.977,56.5038 C69.098,52.8388 65.189,46.0618 69.163,42.7358 C72.156,40.3988 75.601,45.1888 70.748,44.9448 C70.196,45.4058 70.019,46.0898 70.024,46.7848 C70.029,46.7248 70.033,46.6638 70.037,46.6038 C70.146,52.6708 70.417,61.2138 61.907,59.1408" id="Fill-11" fill="#8CBEFF"></path>
            <path d="M72.4812,47.7604 C72.4212,47.3214 72.5982,46.8824 72.9142,46.6014 C73.6272,45.5444 74.2802,44.4634 74.9182,43.3594 C74.6272,43.0774 74.3452,42.7844 74.0652,42.4924 C74.1082,42.5314 74.1512,42.5714 74.1932,42.6104 C73.5942,42.0504 73.0232,41.4624 72.4502,40.8794 C72.4922,40.9184 72.5352,40.9574 72.5782,40.9964 C69.6722,37.6654 74.5442,37.7674 75.7522,40.5014 C75.7102,40.4614 75.6682,40.4224 75.6252,40.3834 C76.2062,40.9384 76.7692,41.5054 77.3272,42.0844 C77.2902,42.0404 77.2522,41.9964 77.2142,41.9524 C77.7762,42.4404 78.0932,43.2734 77.6272,43.9284 C77.6392,43.9054 77.6512,43.8824 77.6632,43.8584 C77.6422,43.8994 77.6232,43.9394 77.5962,43.9764 C77.6022,43.9614 77.6072,43.9464 77.6132,43.9304 C77.6032,43.9584 77.5932,43.9854 77.5752,44.0084 C77.5822,43.9994 77.5882,43.9894 77.5942,43.9814 C77.5902,43.9924 77.5862,44.0044 77.5822,44.0154 C77.5882,44.0044 77.5912,43.9914 77.5952,43.9794 C77.6032,43.9684 77.6102,43.9584 77.6172,43.9484 C77.6132,43.9574 77.6082,43.9654 77.6042,43.9734 C77.6152,43.9494 77.6302,43.9284 77.6462,43.9064 C77.6052,43.9624 77.5782,44.0274 77.5562,44.0934 C77.5652,44.0664 77.5752,44.0394 77.5842,44.0124 C76.7222,45.6234 74.2282,51.4134 72.4812,47.7604" id="Fill-13" fill="#8CBEFF"></path>
            <path d="M54.7087,38.7292 C54.1367,38.3502 53.3227,38.5162 52.9227,39.0642 C52.9347,39.0482 52.9467,39.0312 52.9587,39.0152 C52.9417,39.0362 52.9277,39.0592 52.9087,39.0782 C52.9127,39.0732 52.9157,39.0692 52.9187,39.0642 C52.6437,39.3572 52.3557,39.6382 52.0807,39.9322 C52.1197,39.8902 52.1597,39.8492 52.1987,39.8082 C52.0717,39.9392 51.9447,40.0682 51.8167,40.1982 C51.0177,35.8112 53.1357,29.2722 50.3757,25.9402 C47.2607,26.3592 49.5207,31.5252 49.0497,33.7662 C49.0497,33.7412 49.0487,33.7172 49.0477,33.6922 C49.0637,34.4362 49.0527,35.1782 49.0727,35.9212 C49.0707,35.8612 49.0697,35.8012 49.0677,35.7402 C49.0937,37.3672 49.1577,38.9912 49.1667,40.6182 C43.6567,34.8472 44.9137,42.4412 49.4227,44.1712 C49.4067,44.1562 49.3927,44.1422 49.3767,44.1262 C50.7097,45.5952 52.0557,43.6362 53.0297,42.7392 C53.0207,42.7492 53.0107,42.7592 53.0017,42.7692 C53.6657,42.0602 54.3777,41.3882 55.0267,40.6662 C55.0057,40.6952 54.9837,40.7242 54.9637,40.7522 C55.5397,40.1692 55.3807,39.1522 54.7087,38.7292" id="Fill-17" fill="#8CBEFF"></path>
            <path d="M29.6491,59.2086 C29.5771,59.1946 29.5031,59.1916 29.4301,59.1906 C29.4551,59.1906 29.4791,59.1916 29.5031,59.1916 C28.6901,59.2116 27.9061,58.9116 27.1351,58.6806 C27.1931,58.6966 27.2531,58.7136 27.3111,58.7296 C21.6831,56.7126 25.2771,48.7136 23.0601,44.4246 C23.0611,44.4266 23.0621,44.4276 23.0621,44.4286 C23.0121,44.3036 22.9441,44.1906 22.8351,44.1096 C21.3601,43.4196 19.7071,44.1806 18.2511,43.6356 C18.2561,43.6376 18.2621,43.6396 18.2671,43.6416 C18.2191,43.6166 18.1701,43.5896 18.1231,43.5616 C18.1581,43.5826 18.1931,43.6036 18.2291,43.6246 C16.7761,42.9526 17.6671,40.5846 19.2151,41.1966 C28.0961,39.4356 25.9801,49.7766 27.0561,55.2806 C27.0461,55.2486 27.0371,55.2166 27.0271,55.1836 C27.1321,55.5976 27.2321,56.0486 27.7271,56.1116 C27.7151,56.1076 27.7041,56.1046 27.6911,56.1016 C28.2491,56.2556 28.8031,56.4756 29.3781,56.5316 C29.3251,56.5306 29.2731,56.5296 29.2211,56.5296 C29.5861,56.5216 29.9401,56.5676 30.3001,56.6336 C30.2931,56.6316 30.2841,56.6306 30.2761,56.6296 C32.2951,56.8936 31.5851,60.1376 29.6491,59.2086" id="Path" fill="#8CBEFF"></path>
            <path d="M29.9655,63.008 C30.0795,60.878 32.2175,59.374 33.3345,57.672 C32.4205,56.58 31.3605,55.683 30.4035,54.635 C28.4925,53.462 30.9425,50.885 32.2175,52.743 C32.1995,52.72 32.1825,52.698 32.1645,52.676 C33.4285,53.997 34.7485,55.247 35.9665,56.612 C35.9395,56.578 35.9125,56.545 35.8875,56.511 C35.9735,56.624 36.0485,56.737 36.1215,56.855 C36.1185,56.849 36.1145,56.844 36.1115,56.839 C37.1315,59.207 33.4175,60.959 32.6105,63.076 C32.6385,63.027 32.6655,62.976 32.6935,62.927 C32.6155,63.065 32.5305,63.209 32.4705,63.357 C32.5175,63.249 32.5525,63.136 32.5765,63.023 C32.5755,63.023 32.5755,63.023 32.5755,63.023 C32.5745,63.011 32.5745,63 32.5745,62.989 C32.4095,64.427 30.2295,64.396 29.9655,63.008" id="Fill-21" fill="#8CBEFF"></path>
            <path d="M63.3601,20.0338 C63.3651,19.6748 63.3001,19.3378 63.2351,18.9878 C63.2501,19.0628 63.2631,19.1388 63.2781,19.2148 C63.2321,17.6268 62.7371,16.0068 61.2431,15.1898 C61.2531,15.1968 61.2621,15.2028 61.2711,15.2088 C55.4541,11.1538 47.2001,12.2648 40.8421,14.1668 C34.3301,15.7908 33.9081,26.8588 40.7671,28.3238 C40.7561,28.3198 40.7451,28.3158 40.7341,28.3118 C41.1391,28.4448 41.5361,28.5548 41.9591,28.6398 C41.8901,28.6258 41.8231,28.6128 41.7551,28.5998 C45.2551,29.4368 48.7921,28.4378 52.3211,28.4218 C52.2851,28.4238 52.2491,28.4258 52.2131,28.4278 C52.3011,28.4228 52.3891,28.4168 52.4771,28.4118 C52.4721,28.4118 52.4661,28.4128 52.4621,28.4128 C57.7301,28.8458 63.9851,26.2018 63.3601,20.0338" id="Fill-23" fill="#C5AFED"></path>
            <path d="M7.2185,52.7345 C5.3195,52.3025 2.0065,53.4325 0.9215,51.5495 C0.8705,47.7165 -1.4975,36.6115 1.5635,34.7215 C4.8035,34.2455 8.0635,33.0505 11.3545,33.6895 C11.3535,33.6885 11.3515,33.6885 11.3505,33.6885 C11.3555,33.6895 11.3615,33.6905 11.3655,33.6915 L11.3645,33.6915 C14.2835,34.7735 20.2365,32.0235 19.7685,37.0185 C17.9955,41.3155 22.8765,52.3665 16.6035,52.3025 C16.6685,52.3015 16.7355,52.3015 16.8005,52.3005 C13.6035,52.4905 10.4275,53.0555 7.2185,52.7345" id="Fill-25" fill="#A08ADE"></path>
            <path d="M86.3366,52.7414 C84.8806,52.5524 83.4246,52.3884 81.9766,52.1484 C81.7256,52.2194 81.4566,52.2234 81.2026,52.1624 C80.8866,52.2034 80.5786,52.0354 80.4616,51.7544 C79.2036,46.5564 79.9306,40.6154 80.1396,35.2214 C81.0406,33.3844 84.3346,34.1464 86.1376,33.8604 C86.0886,33.8624 86.0396,33.8654 85.9886,33.8664 C87.9156,33.7904 89.8476,33.7194 91.7736,33.8064 C93.5446,33.7184 96.6046,32.4084 97.8186,33.9774 C98.3666,38.3594 100.6546,49.5984 97.1196,51.9764 C96.8386,52.2544 96.4126,52.3654 96.0276,52.3034 C92.9106,53.0174 89.5356,52.9124 86.3366,52.7414" id="Fill-28" fill="#A08ADE"></path>
            <path d="M49.3103,68.4455 C49.1403,68.2915 49.0383,68.0945 48.8973,67.9215 C48.8973,67.9215 48.8963,67.9215 48.8963,67.9205 C48.8953,67.9195 48.8933,67.9165 48.8903,67.9145 C46.2973,64.7875 37.0463,60.6475 38.0653,56.9725 C41.2583,53.3265 45.0843,50.3245 48.9183,47.3955 C48.9173,47.3965 48.9153,47.3975 48.9143,47.3985 C48.9163,47.3965 48.9183,47.3955 48.9203,47.3935 C48.9193,47.3945 48.9193,47.3945 48.9183,47.3955 C49.3743,47.0135 49.8543,46.5675 50.4473,46.4245 C54.6423,48.0495 58.3963,53.3275 62.2193,56.3645 C62.2113,56.3555 62.2033,56.3455 62.1943,56.3365 C62.2663,56.4215 62.3333,56.5075 62.3933,56.5985 C63.5873,57.3945 63.1963,59.2615 61.8563,59.6165 C61.3493,60.1405 60.8643,60.6845 60.3653,61.2165 C60.4083,61.1695 60.4513,61.1215 60.4933,61.0745 C59.3473,62.4325 57.9443,63.5145 56.5773,64.6345 C56.6203,64.5985 56.6643,64.5615 56.7073,64.5245 C56.6373,64.5825 56.5693,64.6395 56.5003,64.6975 C56.5253,64.6765 56.5503,64.6555 56.5773,64.6345 C54.4493,65.9675 52.0743,70.6215 49.3103,68.4455" id="Path" fill="#5396FA"></path>
        </g>
    </g>
</svg>